<?xml version="1.0" encoding="UTF-8" standalone="no"?>
<!-- Created with Inkscape (http://www.inkscape.org/) -->

<svg
   xmlns:dc="http://purl.org/dc/elements/1.1/"
   xmlns:cc="http://creativecommons.org/ns#"
   xmlns:rdf="http://www.w3.org/1999/02/22-rdf-syntax-ns#"
   xmlns:svg="http://www.w3.org/2000/svg"
   xmlns="http://www.w3.org/2000/svg"
   xmlns:sodipodi="http://sodipodi.sourceforge.net/DTD/sodipodi-0.dtd"
   xmlns:inkscape="http://www.inkscape.org/namespaces/inkscape"
   width="192"
   height="192"
   viewBox="0 0 50.799999 50.800001"
   version="1.1"
   id="svg8"
   inkscape:export-filename="/home/loxygen/Desktop/goodness 案s/final.png"
   inkscape:export-xdpi="96"
   inkscape:export-ydpi="96"
   inkscape:version="0.92.4 (unknown)"
   sodipodi:docname="4.svg">
  <defs
     id="defs2">
    <inkscape:perspective
       sodipodi:type="inkscape:persp3d"
       inkscape:vp_x="-15.995188 : 111.73176 : 1"
       inkscape:vp_y="0 : 6355.9376 : 0"
       inkscape:vp_z="223.92805 : 110.6711 : 1"
       inkscape:persp3d-origin="111.7446 : 48.372215 : 1"
       id="perspective4642" />
    <inkscape:perspective
       sodipodi:type="inkscape:persp3d"
       inkscape:vp_x="-5.3513567 : 20.71977 : 1"
       inkscape:vp_y="0 : 1768.954 : 0"
       inkscape:vp_z="67.356618 : 20.424572 : 1"
       inkscape:persp3d-origin="33.35978 : 3.0858447 : 1"
       id="perspective48" />
  </defs>
  <sodipodi:namedview
     id="base"
     pagecolor="#273870"
     bordercolor="#666666"
     borderopacity="1.0"
     inkscape:pageopacity="1"
     inkscape:pageshadow="2"
     inkscape:zoom="2"
     inkscape:cx="99.215072"
     inkscape:cy="105.65331"
     inkscape:document-units="mm"
     inkscape:current-layer="layer1"
     showgrid="false"
     units="px"
     showguides="false"
     inkscape:window-width="1100"
     inkscape:window-height="1025"
     inkscape:window-x="820"
     inkscape:window-y="27"
     inkscape:window-maximized="0">
    <inkscape:grid
       type="xygrid"
       id="grid4640" />
  </sodipodi:namedview>
  <metadata
     id="metadata5">
    <rdf:RDF>
      <cc:Work
         rdf:about="">
        <dc:format>image/svg+xml</dc:format>
        <dc:type
           rdf:resource="http://purl.org/dc/dcmitype/StillImage" />
        <dc:title></dc:title>
      </cc:Work>
    </rdf:RDF>
  </metadata>
  <g
     inkscape:label="レイヤー 1"
     inkscape:groupmode="layer"
     id="layer1"
     transform="translate(0,-246.19998)">
    <path
       inkscape:connector-curvature="0"
       id="path4669"
       style="font-style:normal;font-variant:normal;font-weight:normal;font-stretch:normal;font-size:10.58333302px;line-height:1.25;font-family:'Noto Sans CJK JP';-inkscape-font-specification:'Noto Sans CJK JP';letter-spacing:0px;word-spacing:0px;opacity:1;fill:#cbe5e5;fill-opacity:1;stroke:#cbe5e5;stroke-width:0.25894952;stroke-miterlimit:4;stroke-dasharray:none;stroke-opacity:0.63063061"
       d="m 17.120655,284.03248 c 0.0056,0.65173 0.01926,0.58843 0.0011,1.20001 l 2.527771,-0.0203 V 273.88767 H 17.09795 l 0.03357,6.87486 c -0.08442,1.48326 -2.709416,2.52527 -3.894133,2.5576 -1.292577,0.0352 -2.55132,-0.78864 -2.55132,-2.39929 v -6.94492 H 8.1345513 v 7.17434 c 0.036229,5.16477 6.9250927,5.12636 8.9861037,2.88219 z"
       sodipodi:nodetypes="ccccccsscccc" />
    <path
       style="opacity:1;fill:#cbe5e5;fill-opacity:1;stroke:#cbe5e5;stroke-width:0.22839217;stroke-miterlimit:4;stroke-dasharray:none;stroke-opacity:0.63063061"
       d="m 3.449051,271.1201 c 0.048783,-10.13016 0.217018,-16.156 0.2260943,-16.15938 0.00908,-0.004 0.1953593,0.0266 2.9215492,0.0667 5.3254745,-0.0513 12.6411095,0.22214 12.8545005,7.65891 -0.09285,7.77373 -6.682493,8.08113 -13.09985,8.18842 v 7.66134 7.9283 l 19.61837,0.0274 19.61837,0.0273 -0.0095,-7.52133 -0.0095,-7.52134 0.953091,-3.79985 1.269401,-4.31473 -0.123525,14.90778 c 0.01703,4.85652 0.173796,8.93326 0.123525,8.97358 -2.93582,0.5493 -0.398665,1.82939 -3.929098,2.22272 l -21.839483,0.0733 -18.6626432,-4.3e-4 z m 3.1743113,-12.98961 c -0.00739,3.42788 -0.090672,6.04898 -0.090672,9.39794 4.5423747,0.20184 9.2544707,-0.5593 9.2267707,-4.92287 0.02185,-4.44429 -5.329235,-4.44093 -9.1360987,-4.47507 z"
       id="path4733"
       inkscape:connector-curvature="0"
       sodipodi:nodetypes="scccccccccccccccccscccc" />
    <path
       inkscape:connector-curvature="0"
       id="path4671"
       style="font-style:normal;font-variant:normal;font-weight:normal;font-stretch:normal;font-size:10.58333302px;line-height:1.25;font-family:'Noto Sans CJK JP';-inkscape-font-specification:'Noto Sans CJK JP';letter-spacing:0px;word-spacing:0px;opacity:1;fill:#cbe5e5;fill-opacity:1;stroke:#cbe5e5;stroke-width:0.25894952;stroke-miterlimit:4;stroke-dasharray:none;stroke-opacity:0.63063061"
       d="m 26.658347,285.41107 c 1.481442,0 2.894511,-0.52748 4.011291,-1.45579 l -0.887915,-1.70626 c -0.774908,0.65406 -1.777733,1.13932 -2.917306,1.13932 -2.279143,0 -3.852703,-1.33194 -3.852703,-3.96926 0,-2.63733 1.640985,-4.21004 3.897335,-4.21004 0.980034,0 1.732152,0.42197 2.461477,1.01274 l 1.0712,-1.48657 c -0.888868,-0.71734 -2.005646,-1.35031 -3.623841,-1.35031 -3.168009,0 -5.971357,2.21535 -5.971357,6.03418 0,3.79773 2.529852,5.99199 5.811819,5.99199 z"
       sodipodi:nodetypes="sccsssccsss" />
    <path
       inkscape:connector-curvature="0"
       id="path4673"
       style="font-style:normal;font-variant:normal;font-weight:normal;font-stretch:normal;font-size:10.58333302px;line-height:1.25;font-family:'Noto Sans CJK JP';-inkscape-font-specification:'Noto Sans CJK JP';letter-spacing:0px;word-spacing:0px;opacity:1;fill:#cbe5e5;fill-opacity:1;stroke:#cbe5e5;stroke-width:0.25894952;stroke-miterlimit:4;stroke-dasharray:none;stroke-opacity:0.63063061"
       d="m 31.836357,285.24458 h 2.074019 v -11.45649 h -2.074019 z m 1.000919,-12.8928 c 0.820492,0 1.390279,-0.50637 1.390279,-1.287 0,-0.73845 -0.569787,-1.24482 -1.390279,-1.24482 -0.820491,0 -1.390278,0.50637 -1.390278,1.24482 0,0.78063 0.569787,1.287 1.390278,1.287 z"
       sodipodi:nodetypes="cccccsssss" />
    <path
       inkscape:connector-curvature="0"
       id="path4675"
       style="font-style:normal;font-variant:normal;font-weight:normal;font-stretch:normal;font-size:10.58333302px;line-height:1.25;font-family:'Noto Sans CJK JP';-inkscape-font-specification:'Noto Sans CJK JP';letter-spacing:0px;word-spacing:0px;opacity:1;fill:#cbe5e5;fill-opacity:1;stroke:#cbe5e5;stroke-width:0.25894952;stroke-miterlimit:4;stroke-dasharray:none;stroke-opacity:0.63063061"
       d="m 40.010862,285.45393 c 2.917305,0 4.512706,-1.54021 4.512706,-3.39686 0,-2.17314 -1.982858,-2.84831 -3.783381,-3.48127 -1.390279,-0.48527 -2.666598,-0.88613 -2.666598,-1.98326 0,-0.88613 0.830055,-1.41164 2.402664,-1.41164 1.093988,0 1.960064,0.42196 2.803348,1.01272 l 0.902096,-1.47885 c -0.957243,-0.69624 -2.301937,-1.28699 -3.828964,-1.28699 -2.689387,0 -4.284791,1.43469 -4.284791,3.24916 0,1.94107 1.707019,2.92453 3.439168,3.51528 1.367485,0.48527 3.010812,0.78882 3.010812,1.97034 0,0.99162 -0.663395,1.51253 -2.304379,1.51253 -1.481445,0 -2.598225,-0.54857 -3.669423,-1.3503 l -1.15992,1.54675 c 1.185154,0.90722 2.87172,1.58239 4.626662,1.58239 z"
       sodipodi:nodetypes="sscssccsscssccs" />
  </g>
  <g
     inkscape:groupmode="layer"
     id="layer2"
     inkscape:label="レイヤー 2" />
</svg>
